<svg width="230" height="225" version="1.1" xmlns="http://www.w3.org/2000/svg" desc="Created with imagetracer.js version 1.2.6" ><path fill="rgb(250,231,236)" stroke="rgb(250,231,236)" stroke-width="1" opacity="1" d="M 120.5 8 L 121 10.5 L 120 10.5 L 120.5 8 Z " /><path fill="rgb(250,231,236)" stroke="rgb(250,231,236)" stroke-width="1" opacity="1" d="M 122.5 10 L 123 13.5 L 122 13.5 L 122.5 10 Z " /><path fill="rgb(250,231,236)" stroke="rgb(250,231,236)" stroke-width="1" opacity="1" d="M 119.5 14 L 120 16.5 L 119 16.5 L 119.5 14 Z " /><path fill="rgb(250,231,236)" stroke="rgb(250,231,236)" stroke-width="1" opacity="1" d="M 123.5 17 L 124 19.5 L 123 19.5 L 123.5 17 Z " /><path fill="rgb(250,231,236)" stroke="rgb(250,231,236)" stroke-width="1" opacity="1" d="M 118.5 20 L 119 22.5 L 118 22.5 L 118.5 20 Z " /><path fill="rgb(250,231,236)" stroke="rgb(250,231,236)" stroke-width="1" opacity="1" d="M 199.5 20 L 200 25.5 L 199 25.5 L 199.5 20 Z " /><path fill="rgb(250,231,236)" stroke="rgb(250,231,236)" stroke-width="1" opacity="1" d="M 124.5 23 L 125 26.5 L 124 26.5 L 124.5 23 Z " /><path fill="rgb(250,231,236)" stroke="rgb(250,231,236)" stroke-width="1" opacity="1" d="M 117.5 26 L 118 28.5 L 117 28.5 L 117.5 26 Z " /><path fill="rgb(250,231,236)" stroke="rgb(250,231,236)" stroke-width="1" opacity="1" d="M 195.5 28 L 198 28.5 L 195.5 29 L 195.5 28 Z " /><path fill="rgb(250,231,236)" stroke="rgb(250,231,236)" stroke-width="1" opacity="1" d="M 201.5 28 L 209 29.5 L 202 30 L 201.5 33 L 201 30.5 L 201.5 28 Z " /><path fill="rgb(250,231,236)" stroke="rgb(250,231,236)" stroke-width="1" opacity="1" d="M 125.5 30 L 126 33.5 L 125 33.5 L 125.5 30 Z " /><path fill="rgb(250,231,236)" stroke="rgb(250,231,236)" stroke-width="1" opacity="1" d="M 196.5 31 L 200 31.5 L 198.5 35 L 198 32 L 196.5 31 Z " /><path fill="rgb(250,231,236)" stroke="rgb(250,231,236)" stroke-width="1" opacity="1" d="M 116.5 32 L 117 34.5 L 116 34.5 L 116.5 32 Z " /><path fill="rgb(250,231,236)" stroke="rgb(250,231,236)" stroke-width="1" opacity="1" d="M 206.5 32 L 209 32.5 L 206.5 33 L 206.5 32 Z " /><path fill="rgb(250,231,236)" stroke="rgb(250,231,236)" stroke-width="1" opacity="1" d="M 121.5 34 L 122 39.5 L 120.5 42 L 120 37.5 L 121.5 34 Z " /><path fill="rgb(250,231,236)" stroke="rgb(250,231,236)" stroke-width="1" opacity="1" d="M 197.5 40 L 198 42.5 L 197 42.5 L 197.5 40 Z " /><path fill="rgb(250,231,236)" stroke="rgb(250,231,236)" stroke-width="1" opacity="1" d="M 130.5 41 L 135 41.5 L 130.5 42 L 130.5 41 Z " /><path fill="rgb(250,231,236)" stroke="rgb(250,231,236)" stroke-width="1" opacity="1" d="M 114.5 42 L 115 45.5 L 114 45.5 L 114.5 42 Z " /><path fill="rgb(250,231,236)" stroke="rgb(250,231,236)" stroke-width="1" opacity="1" d="M 200.5 42 L 201 44.5 L 200 44.5 L 200.5 42 Z " /><path fill="rgb(250,231,236)" stroke="rgb(250,231,236)" stroke-width="1" opacity="1" d="M 127.5 43 L 128 45.5 L 127 45.5 L 127.5 43 Z " /><path fill="rgb(250,231,236)" stroke="rgb(250,231,236)" stroke-width="1" opacity="1" d="M 122.5 44 L 123 48.5 L 122 48.5 L 122.5 44 Z " /><path fill="rgb(250,231,236)" stroke="rgb(250,231,236)" stroke-width="1" opacity="1" d="M 119.5 46 L 120 49.5 L 119 49.5 L 119.5 46 Z " /><path fill="rgb(250,231,236)" stroke="rgb(250,231,236)" stroke-width="1" opacity="1" d="M 113.5 48 L 114 50.5 L 113 50.5 L 113.5 48 Z " /><path fill="rgb(250,231,236)" stroke="rgb(250,231,236)" stroke-width="1" opacity="1" d="M 128.5 48 L 129 51 L 131 51.5 L 129.5 52 Q 127 51 128.5 48 Z " /><path fill="rgb(250,231,236)" stroke="rgb(250,231,236)" stroke-width="1" opacity="1" d="M 118.5 52 L 119 55.5 L 118 55.5 L 118.5 52 Z " /><path fill="rgb(250,231,236)" stroke="rgb(250,231,236)" stroke-width="1" opacity="1" d="M 123.5 52 L 124 55.5 L 123 55.5 L 123.5 52 Z " /><path fill="rgb(250,231,236)" stroke="rgb(250,231,236)" stroke-width="1" opacity="1" d="M 147.5 55 L 151 55.5 L 147.5 56 L 147.5 55 Z " /><path fill="rgb(250,231,236)" stroke="rgb(250,231,236)" stroke-width="1" opacity="1" d="M 124.5 58 L 125 60.5 L 124 60.5 L 124.5 58 Z " /><path fill="rgb(250,231,236)" stroke="rgb(250,231,236)" stroke-width="1" opacity="1" d="M 109.5 60 L 111 63.5 L 110 63.5 L 109.5 60 Z " /><path fill="rgb(250,231,236)" stroke="rgb(250,231,236)" stroke-width="1" opacity="1" d="M 92.5 64 L 91.5 66 L 92.5 64 Z " /><path fill="rgb(250,231,236)" stroke="rgb(250,231,236)" stroke-width="1" opacity="1" d="M 98.5 68 L 100 70.5 L 99 70.5 L 98.5 68 Z " /><path fill="rgb(250,231,236)" stroke="rgb(250,231,236)" stroke-width="1" opacity="1" d="M 81.5 70 L 80.5 72 L 81.5 70 Z " /><path fill="rgb(250,231,236)" stroke="rgb(250,231,236)" stroke-width="1" opacity="1" d="M 135.5 72 L 136.5 74 L 135.5 72 Z " /><path fill="rgb(250,231,236)" stroke="rgb(250,231,236)" stroke-width="1" opacity="1" d="M 137.5 75 L 143.5 82 L 137.5 75 Z " /><path fill="rgb(250,231,236)" stroke="rgb(250,231,236)" stroke-width="1" opacity="1" d="M 130.5 76 L 132 79 L 130 78.5 L 130.5 76 Z " /><path fill="rgb(250,231,236)" stroke="rgb(250,231,236)" stroke-width="1" opacity="1" d="M 94 77 L 96 77.5 L 95 78.5 L 96.5 81 L 94 77 Z " /><path fill="rgb(250,231,236)" stroke="rgb(250,231,236)" stroke-width="1" opacity="1" d="M 110.5 78 L 109.5 80 L 110.5 78 Z " /><path fill="rgb(250,231,236)" stroke="rgb(250,231,236)" stroke-width="1" opacity="1" d="M 101.5 79 L 100.5 81 L 101.5 79 Z " /><path fill="rgb(250,231,236)" stroke="rgb(250,231,236)" stroke-width="1" opacity="1" d="M 145.5 82 L 146.5 84 L 145.5 82 Z " /><path fill="rgb(250,231,236)" stroke="rgb(250,231,236)" stroke-width="1" opacity="1" d="M 106.5 83 L 103.5 87 L 106.5 83 Z " /><path fill="rgb(250,231,236)" stroke="rgb(250,231,236)" stroke-width="1" opacity="1" d="M 179.5 83 Q 183.3 82.3 184 84.5 L 182.5 84 Q 178.5 84.8 179.5 83 Z " /><path fill="rgb(250,231,236)" stroke="rgb(250,231,236)" stroke-width="1" opacity="1" d="M 122.5 84 L 123 86.5 L 122 86.5 L 122.5 84 Z " /><path fill="rgb(250,231,236)" stroke="rgb(250,231,236)" stroke-width="1" opacity="1" d="M 137 85 L 139 85.5 L 137 86.5 L 137 85 Z " /><path fill="rgb(250,231,236)" stroke="rgb(250,231,236)" stroke-width="1" opacity="1" d="M 175.5 85 L 174.5 87 L 175.5 85 Z " /><path fill="rgb(250,231,236)" stroke="rgb(250,231,236)" stroke-width="1" opacity="1" d="M 184.5 86 L 185 88.5 L 184 88.5 L 184.5 86 Z " /><path fill="rgb(250,231,236)" stroke="rgb(250,231,236)" stroke-width="1" opacity="1" d="M 82.5 87 L 85 87.5 L 82.5 88 L 82.5 87 Z " /><path fill="rgb(250,231,236)" stroke="rgb(250,231,236)" stroke-width="1" opacity="1" d="M 101.5 87 L 100 89.5 L 99.5 91 L 99 89.5 L 101.5 87 Z " /><path fill="rgb(250,231,236)" stroke="rgb(250,231,236)" stroke-width="1" opacity="1" d="M 136.5 88 L 135 90.5 L 134.5 92 L 134 90.5 L 136.5 88 Z " /><path fill="rgb(250,231,236)" stroke="rgb(250,231,236)" stroke-width="1" opacity="1" d="M 143.5 88 L 144.5 90 L 143.5 88 Z " /><path fill="rgb(250,231,236)" stroke="rgb(250,231,236)" stroke-width="1" opacity="1" d="M 53.5 89 L 54 91 L 50 90.5 L 53.5 89 Z " /><path fill="rgb(250,231,236)" stroke="rgb(250,231,236)" stroke-width="1" opacity="1" d="M 107.5 89 L 111 89.5 L 107.5 90 L 107.5 89 Z " /><path fill="rgb(250,231,236)" stroke="rgb(250,231,236)" stroke-width="1" opacity="1" d="M 123.5 89 Q 126.5 90.5 123.5 92 L 123.5 89 Z " /><path fill="rgb(250,231,236)" stroke="rgb(250,231,236)" stroke-width="1" opacity="1" d="M 42.5 91 L 47 91.5 L 42.5 92 L 42.5 91 Z " /><path fill="rgb(250,231,236)" stroke="rgb(250,231,236)" stroke-width="1" opacity="1" d="M 116.5 91 Q 118.8 95.3 121 93.5 L 119.5 95 L 116.5 91 Z " /><path fill="rgb(250,231,236)" stroke="rgb(250,231,236)" stroke-width="1" opacity="1" d="M 34.5 92 L 39 92.5 L 34.5 93 L 34.5 92 Z " /><path fill="rgb(250,231,236)" stroke="rgb(250,231,236)" stroke-width="1" opacity="1" d="M 138.5 92 L 137.5 94 L 138.5 92 Z " /><path fill="rgb(250,231,236)" stroke="rgb(250,231,236)" stroke-width="1" opacity="1" d="M 187.5 92 L 191 93.5 L 188.5 94 L 187.5 92 Z " /><path fill="rgb(250,231,236)" stroke="rgb(250,231,236)" stroke-width="1" opacity="1" d="M 27.5 93 L 31 93.5 L 27.5 94 L 27.5 93 Z " /><path fill="rgb(250,231,236)" stroke="rgb(250,231,236)" stroke-width="1" opacity="1" d="M 20.5 94 Q 29.2 96.8 42.5 95 L 44 96.5 L 34.5 97 L 33.5 96 L 20.5 95 L 20.5 94 Z " /><path fill="rgb(250,231,236)" stroke="rgb(250,231,236)" stroke-width="1" opacity="1" d="M 194.5 94 L 197 94.5 L 194.5 95 L 194.5 94 Z " /><path fill="rgb(250,231,236)" stroke="rgb(250,231,236)" stroke-width="1" opacity="1" d="M 14.5 95 L 19 96.5 L 16.5 97 L 14.5 95 Z " /><path fill="rgb(250,231,236)" stroke="rgb(250,231,236)" stroke-width="1" opacity="1" d="M 200.5 95 L 203 95.5 L 200.5 96 L 200.5 95 Z " /><path fill="rgb(250,231,236)" stroke="rgb(250,231,236)" stroke-width="1" opacity="1" d="M 166.5 96 L 168 98.5 L 166 98.5 L 165.5 100 L 165 98.5 L 166.5 96 Z " /><path fill="rgb(250,231,236)" stroke="rgb(250,231,236)" stroke-width="1" opacity="1" d="M 205.5 96 L 208 96.5 L 204.5 98 L 205.5 96 Z " /><path fill="rgb(250,231,236)" stroke="rgb(250,231,236)" stroke-width="1" opacity="1" d="M 21.5 97 L 24 97.5 L 21.5 98 L 21.5 97 Z " /><path fill="rgb(250,231,236)" stroke="rgb(250,231,236)" stroke-width="1" opacity="1" d="M 189.5 97 L 195 97.5 L 189.5 98 L 189.5 97 Z " /><path fill="rgb(250,231,236)" stroke="rgb(250,231,236)" stroke-width="1" opacity="1" d="M 27.5 98 L 30 98.5 L 27.5 99 L 27.5 98 Z " /><path fill="rgb(250,231,236)" stroke="rgb(250,231,236)" stroke-width="1" opacity="1" d="M 64.5 98 L 67 98.5 L 64.5 99 L 64.5 98 Z " /><path fill="rgb(250,231,236)" stroke="rgb(250,231,236)" stroke-width="1" opacity="1" d="M 33.5 99 L 36 99.5 L 33.5 100 L 33.5 99 Z " /><path fill="rgb(250,231,236)" stroke="rgb(250,231,236)" stroke-width="1" opacity="1" d="M 38.5 100 Q 42.3 99.3 43 101.5 L 41.5 101 Q 37.5 101.8 38.5 100 Z " /><path fill="rgb(250,231,236)" stroke="rgb(250,231,236)" stroke-width="1" opacity="1" d="M 191.5 100 L 194 100.5 L 191.5 101 L 191.5 100 Z " /><path fill="rgb(250,231,236)" stroke="rgb(250,231,236)" stroke-width="1" opacity="1" d="M 187.5 101 L 190 101.5 L 187.5 102 L 187.5 101 Z " /><path fill="rgb(250,231,236)" stroke="rgb(250,231,236)" stroke-width="1" opacity="1" d="M 93.5 103 L 92.5 105 L 93.5 103 Z " /><path fill="rgb(250,231,236)" stroke="rgb(250,231,236)" stroke-width="1" opacity="1" d="M 136.5 104 L 135.5 106 L 136.5 104 Z " /><path fill="rgb(250,231,236)" stroke="rgb(250,231,236)" stroke-width="1" opacity="1" d="M 182.5 105 Q 186.3 104.3 187 106.5 L 185.5 106 Q 181.5 106.8 182.5 105 Z " /><path fill="rgb(250,231,236)" stroke="rgb(250,231,236)" stroke-width="1" opacity="1" d="M 93.5 112 L 94.5 114 L 93.5 112 Z " /><path fill="rgb(250,231,236)" stroke="rgb(250,231,236)" stroke-width="1" opacity="1" d="M 166.5 113 L 169 114.5 L 167.5 114 L 166.5 113 Z " /><path fill="rgb(250,231,236)" stroke="rgb(250,231,236)" stroke-width="1" opacity="1" d="M 96.5 114 L 97.5 116 L 96.5 114 Z " /><path fill="rgb(250,231,236)" stroke="rgb(250,231,236)" stroke-width="1" opacity="1" d="M 120.5 114 L 121.5 116 L 120.5 114 Z " /><path fill="rgb(250,231,236)" stroke="rgb(250,231,236)" stroke-width="1" opacity="1" d="M 72.5 115 L 68.5 120 L 72.5 115 Z " /><path fill="rgb(250,231,236)" stroke="rgb(250,231,236)" stroke-width="1" opacity="1" d="M 133.5 117 L 132.5 119 L 133.5 117 Z " /><path fill="rgb(250,231,236)" stroke="rgb(250,231,236)" stroke-width="1" opacity="1" d="M 141.5 117 L 140.5 119 L 141.5 117 Z " /><path fill="rgb(250,231,236)" stroke="rgb(250,231,236)" stroke-width="1" opacity="1" d="M 110.5 119 L 111.5 121 L 110.5 119 Z " /><path fill="rgb(250,231,236)" stroke="rgb(250,231,236)" stroke-width="1" opacity="1" d="M 45.5 120 L 46.5 122 L 45.5 120 Z " /><path fill="rgb(250,231,236)" stroke="rgb(250,231,236)" stroke-width="1" opacity="1" d="M 131.5 120 L 131 121.5 L 129.5 124 L 130 122.5 L 131.5 120 Z " /><path fill="rgb(250,231,236)" stroke="rgb(250,231,236)" stroke-width="1" opacity="1" d="M 138.5 121 L 137.5 123 L 138.5 121 Z " /><path fill="rgb(250,231,236)" stroke="rgb(250,231,236)" stroke-width="1" opacity="1" d="M 104.5 122 L 105.5 124 L 104.5 122 Z " /><path fill="rgb(250,231,236)" stroke="rgb(250,231,236)" stroke-width="1" opacity="1" d="M 52.5 123 L 55 123.5 L 52.5 124 L 52.5 123 Z " /><path fill="rgb(250,231,236)" stroke="rgb(250,231,236)" stroke-width="1" opacity="1" d="M 56.5 123 L 60 123.5 L 56.5 124 L 56.5 123 Z " /><path fill="rgb(250,231,236)" stroke="rgb(250,231,236)" stroke-width="1" opacity="1" d="M 136.5 124 L 135.5 126 L 136.5 124 Z " /><path fill="rgb(250,231,236)" stroke="rgb(250,231,236)" stroke-width="1" opacity="1" d="M 97.5 126 L 98.5 128 L 97.5 126 Z " /><path fill="rgb(250,231,236)" stroke="rgb(250,231,236)" stroke-width="1" opacity="1" d="M 68.5 131 L 72.5 136 L 68.5 131 Z " /><path fill="rgb(250,231,236)" stroke="rgb(250,231,236)" stroke-width="1" opacity="1" d="M 74.5 131 L 76.5 134 L 74.5 131 Z " /><path fill="rgb(250,231,236)" stroke="rgb(250,231,236)" stroke-width="1" opacity="1" d="M 116.5 135 L 117 138.5 L 116 138.5 L 116.5 135 Z " /><path fill="rgb(250,231,236)" stroke="rgb(250,231,236)" stroke-width="1" opacity="1" d="M 124.5 137 L 125 139.5 L 124 139.5 L 124.5 137 Z " /><path fill="rgb(250,231,236)" stroke="rgb(250,231,236)" stroke-width="1" opacity="1" d="M 109.5 139 L 110.5 141 L 109.5 139 Z " /><path fill="rgb(250,231,236)" stroke="rgb(250,231,236)" stroke-width="1" opacity="1" d="M 58.5 143 L 61 144.5 L 60.5 146 L 60 144 L 58.5 143 Z " /><path fill="rgb(250,231,236)" stroke="rgb(250,231,236)" stroke-width="1" opacity="1" d="M 123.5 143 L 124 146.5 L 123 146.5 L 123.5 143 Z " /><path fill="rgb(250,231,236)" stroke="rgb(250,231,236)" stroke-width="1" opacity="1" d="M 111.5 144 L 112 146.5 L 111 146.5 L 111.5 144 Z " /><path fill="rgb(250,231,236)" stroke="rgb(250,231,236)" stroke-width="1" opacity="1" d="M 117.5 144 L 118 147.5 L 117 147.5 L 117.5 144 Z " /><path fill="rgb(250,231,236)" stroke="rgb(250,231,236)" stroke-width="1" opacity="1" d="M 154.5 145 L 157 145.5 L 154.5 146 L 154.5 145 Z " /><path fill="rgb(250,231,236)" stroke="rgb(250,231,236)" stroke-width="1" opacity="1" d="M 172.5 145 L 175 145.5 L 172.5 146 L 172.5 145 Z " /><path fill="rgb(250,231,236)" stroke="rgb(250,231,236)" stroke-width="1" opacity="1" d="M 129.5 146 L 129 147.5 L 128.5 150 L 128 147.5 L 129.5 146 Z " /><path fill="rgb(250,231,236)" stroke="rgb(250,231,236)" stroke-width="1" opacity="1" d="M 175.5 149 Q 177.8 148.3 177 150.5 L 175.5 149 Z " /><path fill="rgb(250,231,236)" stroke="rgb(250,231,236)" stroke-width="1" opacity="1" d="M 122.5 150 L 123 153.5 L 122 153.5 L 122.5 150 Z " /><path fill="rgb(250,231,236)" stroke="rgb(250,231,236)" stroke-width="1" opacity="1" d="M 127.5 152 L 128 154.5 L 127 154.5 L 127.5 152 Z " /><path fill="rgb(250,231,236)" stroke="rgb(250,231,236)" stroke-width="1" opacity="1" d="M 118.5 153 L 119 160.5 L 118 160.5 L 118.5 153 Z " /><path fill="rgb(250,231,236)" stroke="rgb(250,231,236)" stroke-width="1" opacity="1" d="M 62.5 156 L 64 161.5 L 63 161.5 L 62.5 156 Z " /><path fill="rgb(250,231,236)" stroke="rgb(250,231,236)" stroke-width="1" opacity="1" d="M 113.5 158 L 114 161.5 L 113 161.5 L 113.5 158 Z " /><path fill="rgb(250,231,236)" stroke="rgb(250,231,236)" stroke-width="1" opacity="1" d="M 121.5 158 L 122 163.5 L 121 163.5 L 121.5 158 Z " /><path fill="rgb(250,231,236)" stroke="rgb(250,231,236)" stroke-width="1" opacity="1" d="M 59.5 160 L 60 162.5 L 59 162.5 L 59.5 160 Z " /><path fill="rgb(250,231,236)" stroke="rgb(250,231,236)" stroke-width="1" opacity="1" d="M 65.5 161 L 68 161.5 L 65.5 162 L 65.5 161 Z " /><path fill="rgb(250,231,236)" stroke="rgb(250,231,236)" stroke-width="1" opacity="1" d="M 125.5 164 L 126 166.5 L 125 166.5 L 125.5 164 Z " /><path fill="rgb(250,231,236)" stroke="rgb(250,231,236)" stroke-width="1" opacity="1" d="M 114.5 165 L 115 168.5 L 114 168.5 L 114.5 165 Z " /><path fill="rgb(250,231,236)" stroke="rgb(250,231,236)" stroke-width="1" opacity="1" d="M 61.5 167 L 62 169.5 L 61 169.5 L 61.5 167 Z " /><path fill="rgb(250,231,236)" stroke="rgb(250,231,236)" stroke-width="1" opacity="1" d="M 119.5 168 Q 122.8 169.8 121 176.5 L 119.5 185 L 119.5 168 Z " /><path fill="rgb(250,231,236)" stroke="rgb(250,231,236)" stroke-width="1" opacity="1" d="M 124.5 170 L 125 172.5 L 124 172.5 L 124.5 170 Z " /><path fill="rgb(250,231,236)" stroke="rgb(250,231,236)" stroke-width="1" opacity="1" d="M 62.5 173 L 63 175.5 L 62 175.5 L 62.5 173 Z " /><path fill="rgb(250,231,236)" stroke="rgb(250,231,236)" stroke-width="1" opacity="1" d="M 115.5 173 L 116 176.5 L 115 176.5 L 115.5 173 Z " /><path fill="rgb(250,231,236)" stroke="rgb(250,231,236)" stroke-width="1" opacity="1" d="M 123.5 176 L 124 179.5 L 123 179.5 L 123.5 176 Z " /><path fill="rgb(250,231,236)" stroke="rgb(250,231,236)" stroke-width="1" opacity="1" d="M 63.5 179 L 64 181.5 L 63 181.5 L 63.5 179 Z " /><path fill="rgb(250,231,236)" stroke="rgb(250,231,236)" stroke-width="1" opacity="1" d="M 67.5 181 L 68 182.5 L 65.5 184 L 65.5 183 Q 68 183.7 67.5 181 Z " /><path fill="rgb(250,231,236)" stroke="rgb(250,231,236)" stroke-width="1" opacity="1" d="M 116.5 181 L 117 184.5 L 116 184.5 L 116.5 181 Z " /><path fill="rgb(250,231,236)" stroke="rgb(250,231,236)" stroke-width="1" opacity="1" d="M 122.5 183 L 123 186.5 L 122 186.5 L 122.5 183 Z " /><path fill="rgb(250,231,236)" stroke="rgb(250,231,236)" stroke-width="1" opacity="1" d="M 117.5 188 L 118 191.5 L 117 191.5 L 117.5 188 Z " /><path fill="rgb(250,231,236)" stroke="rgb(250,231,236)" stroke-width="1" opacity="1" d="M 121.5 189 L 122 192.5 L 121 192.5 L 121.5 189 Z " /><path fill="rgb(250,231,236)" stroke="rgb(250,231,236)" stroke-width="1" opacity="1" d="M 118.5 196 L 119 198.5 L 118 198.5 L 118.5 196 Z " /><path fill="rgb(250,231,236)" stroke="rgb(250,231,236)" stroke-width="1" opacity="1" d="M 120.5 196 L 121 199.5 L 120 199.5 L 120.5 196 Z " /><path fill="rgb(247,229,156)" stroke="rgb(247,229,156)" stroke-width="1" opacity="1" d="M 126 37 L 135 37.5 L 127 38 L 126.5 40 L 126 37 Z " /><path fill="rgb(247,229,156)" stroke="rgb(247,229,156)" stroke-width="1" opacity="1" d="M 111.5 38 L 114 38.5 L 111.5 39 L 111.5 38 Z " /><path fill="rgb(247,229,156)" stroke="rgb(247,229,156)" stroke-width="1" opacity="1" d="M 115.5 38 L 116 40.5 L 115 40.5 L 115.5 38 Z " /><path fill="rgb(247,229,156)" stroke="rgb(247,229,156)" stroke-width="1" opacity="1" d="M 135.5 41 L 138 41.5 L 135.5 42 L 135.5 41 Z " /><path fill="rgb(247,229,156)" stroke="rgb(247,229,156)" stroke-width="1" opacity="1" d="M 111.5 42 L 114 42.5 L 111.5 43 L 111.5 42 Z " /><path fill="rgb(247,229,156)" stroke="rgb(247,229,156)" stroke-width="1" opacity="1" d="M 131.5 51 L 136 51.5 L 131.5 52 L 131.5 51 Z " /><path fill="rgb(247,229,156)" stroke="rgb(247,229,156)" stroke-width="1" opacity="1" d="M 145.5 51 L 150 51.5 L 145.5 52 L 145.5 51 Z " /><path fill="rgb(247,229,156)" stroke="rgb(247,229,156)" stroke-width="1" opacity="1" d="M 156.5 52 L 159 52.5 L 156.5 53 L 156.5 52 Z " /><path fill="rgb(247,229,156)" stroke="rgb(247,229,156)" stroke-width="1" opacity="1" d="M 129.5 54 L 130.5 56 Q 127.7 56.7 129.5 54 Z " /><path fill="rgb(247,229,156)" stroke="rgb(247,229,156)" stroke-width="1" opacity="1" d="M 72.5 55 L 70.5 58 L 72.5 55 Z " /><path fill="rgb(247,229,156)" stroke="rgb(247,229,156)" stroke-width="1" opacity="1" d="M 151.5 55 L 154 55.5 L 151.5 56 L 151.5 55 Z " /><path fill="rgb(247,229,156)" stroke="rgb(247,229,156)" stroke-width="1" opacity="1" d="M 68.5 59 L 65.5 63 L 68.5 59 Z " /><path fill="rgb(247,229,156)" stroke="rgb(247,229,156)" stroke-width="1" opacity="1" d="M 190.5 59 L 191.5 61 Q 188.7 61.7 190.5 59 Z " /><path fill="rgb(247,229,156)" stroke="rgb(247,229,156)" stroke-width="1" opacity="1" d="M 196.5 59 L 197.5 61 L 196.5 59 Z " /><path fill="rgb(247,229,156)" stroke="rgb(247,229,156)" stroke-width="1" opacity="1" d="M 72.5 60 L 69.5 64 L 72.5 60 Z " /><path fill="rgb(247,229,156)" stroke="rgb(247,229,156)" stroke-width="1" opacity="1" d="M 201.5 63 L 203.5 66 L 201.5 63 Z " /><path fill="rgb(247,229,156)" stroke="rgb(247,229,156)" stroke-width="1" opacity="1" d="M 90.5 68 L 95 68.5 L 90.5 69 L 90.5 68 Z " /><path fill="rgb(247,229,156)" stroke="rgb(247,229,156)" stroke-width="1" opacity="1" d="M 207.5 69 L 210.5 73 Q 208.3 73.8 209 71.5 L 207 71.5 L 207.5 69 Z " /><path fill="rgb(247,229,156)" stroke="rgb(247,229,156)" stroke-width="1" opacity="1" d="M 84.5 71 L 79.5 77 L 75 76.5 Q 82.7 76.7 84.5 71 Z " /><path fill="rgb(247,229,156)" stroke="rgb(247,229,156)" stroke-width="1" opacity="1" d="M 88.5 73 L 91 73.5 L 88.5 74 L 88.5 73 Z " /><path fill="rgb(247,229,156)" stroke="rgb(247,229,156)" stroke-width="1" opacity="1" d="M 96.5 73 L 95.5 75 L 96.5 73 Z " /><path fill="rgb(247,229,156)" stroke="rgb(247,229,156)" stroke-width="1" opacity="1" d="M 90.5 78 L 91.5 80 L 90.5 78 Z " /><path fill="rgb(247,229,156)" stroke="rgb(247,229,156)" stroke-width="1" opacity="1" d="M 59.5 79 L 55 84.5 L 54.5 86 L 54 84.5 Q 57.5 83 55 81.5 L 55.5 80 L 56.5 82 L 59.5 79 Z " /><path fill="rgb(247,229,156)" stroke="rgb(247,229,156)" stroke-width="1" opacity="1" d="M 62.5 80 L 61.5 82 L 62.5 80 Z " /><path fill="rgb(247,229,156)" stroke="rgb(247,229,156)" stroke-width="1" opacity="1" d="M 132.5 81 L 135 82.5 L 133.5 82 L 132.5 81 Z " /><path fill="rgb(247,229,156)" stroke="rgb(247,229,156)" stroke-width="1" opacity="1" d="M 71.5 83 L 70.5 85 L 71.5 83 Z " /><path fill="rgb(247,229,156)" stroke="rgb(247,229,156)" stroke-width="1" opacity="1" d="M 178.5 86 L 177.5 88 L 178.5 86 Z " /><path fill="rgb(247,229,156)" stroke="rgb(247,229,156)" stroke-width="1" opacity="1" d="M 56.5 87 L 57 91.5 L 56 91.5 L 56.5 87 Z " /><path fill="rgb(247,229,156)" stroke="rgb(247,229,156)" stroke-width="1" opacity="1" d="M 127.5 89 L 131 89.5 L 127.5 90 L 127.5 89 Z " /><path fill="rgb(247,229,156)" stroke="rgb(247,229,156)" stroke-width="1" opacity="1" d="M 174.5 89 L 172.5 92 L 174.5 89 Z " /><path fill="rgb(247,229,156)" stroke="rgb(247,229,156)" stroke-width="1" opacity="1" d="M 71.5 90 L 72.5 92 L 71.5 90 Z " /><path fill="rgb(247,229,156)" stroke="rgb(247,229,156)" stroke-width="1" opacity="1" d="M 82.5 92 L 83.5 94 L 82.5 92 Z " /><path fill="rgb(247,229,156)" stroke="rgb(247,229,156)" stroke-width="1" opacity="1" d="M 86.5 92 L 85.5 94 L 86.5 92 Z " /><path fill="rgb(247,229,156)" stroke="rgb(247,229,156)" stroke-width="1" opacity="1" d="M 161.5 92 L 162.5 94 L 161.5 92 Z " /><path fill="rgb(247,229,156)" stroke="rgb(247,229,156)" stroke-width="1" opacity="1" d="M 181.5 92 L 185 92.5 L 181.5 93 L 181.5 92 Z " /><path fill="rgb(247,229,156)" stroke="rgb(247,229,156)" stroke-width="1" opacity="1" d="M 57.5 93 L 58.5 95 L 57.5 93 Z " /><path fill="rgb(247,229,156)" stroke="rgb(247,229,156)" stroke-width="1" opacity="1" d="M 141.5 93 L 141 94.5 L 140.5 96 L 140 94.5 L 141.5 93 Z " /><path fill="rgb(247,229,156)" stroke="rgb(247,229,156)" stroke-width="1" opacity="1" d="M 152.5 93 L 151.5 95 L 150 94.5 L 152.5 93 Z " /><path fill="rgb(247,229,156)" stroke="rgb(247,229,156)" stroke-width="1" opacity="1" d="M 101.5 94 L 98.5 98 L 101.5 94 Z " /><path fill="rgb(247,229,156)" stroke="rgb(247,229,156)" stroke-width="1" opacity="1" d="M 55.5 96 L 59 96.5 L 55.5 97 L 55.5 96 Z " /><path fill="rgb(247,229,156)" stroke="rgb(247,229,156)" stroke-width="1" opacity="1" d="M 184.5 96 L 183.5 98 L 179 97.5 L 184.5 96 Z " /><path fill="rgb(247,229,156)" stroke="rgb(247,229,156)" stroke-width="1" opacity="1" d="M 107.5 97 L 111 98.5 L 110.5 102 L 110 98 L 106 99.5 L 107 103.5 L 105 102.5 Q 104.3 97.8 107.5 97 Z " /><path fill="rgb(247,229,156)" stroke="rgb(247,229,156)" stroke-width="1" opacity="1" d="M 170.5 97 L 171 99.5 L 170 99.5 L 170.5 97 Z " /><path fill="rgb(247,229,156)" stroke="rgb(247,229,156)" stroke-width="1" opacity="1" d="M 49.5 98 L 48.5 100 L 49.5 98 Z " /><path fill="rgb(247,229,156)" stroke="rgb(247,229,156)" stroke-width="1" opacity="1" d="M 60.5 98 L 59.5 100 L 60.5 98 Z " /><path fill="rgb(247,229,156)" stroke="rgb(247,229,156)" stroke-width="1" opacity="1" d="M 118.5 98 L 119 103.5 L 118 103.5 L 118.5 98 Z " /><path fill="rgb(247,229,156)" stroke="rgb(247,229,156)" stroke-width="1" opacity="1" d="M 151.5 99 L 154 100.5 L 153.5 103 L 153 100 L 151.5 99 Z " /><path fill="rgb(247,229,156)" stroke="rgb(247,229,156)" stroke-width="1" opacity="1" d="M 68.5 100 L 66.5 103 L 68.5 100 Z " /><path fill="rgb(247,229,156)" stroke="rgb(247,229,156)" stroke-width="1" opacity="1" d="M 59.5 102 L 60.5 104 L 59.5 102 Z " /><path fill="rgb(247,229,156)" stroke="rgb(247,229,156)" stroke-width="1" opacity="1" d="M 44.5 103 L 43.5 105 L 44.5 103 Z " /><path fill="rgb(247,229,156)" stroke="rgb(247,229,156)" stroke-width="1" opacity="1" d="M 42.5 107 L 43 111.5 L 42 111.5 L 42.5 107 Z " /><path fill="rgb(247,229,156)" stroke="rgb(247,229,156)" stroke-width="1" opacity="1" d="M 161.5 107 L 164 108.5 L 162.5 109 L 161.5 107 Z " /><path fill="rgb(247,229,156)" stroke="rgb(247,229,156)" stroke-width="1" opacity="1" d="M 116.5 108 L 113.5 112 L 116.5 108 Z " /><path fill="rgb(247,229,156)" stroke="rgb(247,229,156)" stroke-width="1" opacity="1" d="M 121.5 108 Q 121.3 112.3 124 113.5 L 121 111.5 L 121.5 108 Z " /><path fill="rgb(247,229,156)" stroke="rgb(247,229,156)" stroke-width="1" opacity="1" d="M 179.5 108 L 182 108.5 L 179.5 109 L 179.5 108 Z " /><path fill="rgb(247,229,156)" stroke="rgb(247,229,156)" stroke-width="1" opacity="1" d="M 184.5 108 L 185 109.5 L 182 111.5 L 184.5 108 Z " /><path fill="rgb(247,229,156)" stroke="rgb(247,229,156)" stroke-width="1" opacity="1" d="M 165.5 110 L 164.5 112 L 165.5 110 Z " /><path fill="rgb(247,229,156)" stroke="rgb(247,229,156)" stroke-width="1" opacity="1" d="M 71.5 112 L 70.5 114 L 71.5 112 Z " /><path fill="rgb(247,229,156)" stroke="rgb(247,229,156)" stroke-width="1" opacity="1" d="M 145.5 112 L 144.5 114 L 143 113.5 L 145.5 112 Z " /><path fill="rgb(247,229,156)" stroke="rgb(247,229,156)" stroke-width="1" opacity="1" d="M 152.5 112 L 153.5 114 L 152.5 112 Z " /><path fill="rgb(247,229,156)" stroke="rgb(247,229,156)" stroke-width="1" opacity="1" d="M 103.5 114 L 107 114.5 L 103.5 115 L 103.5 114 Z " /><path fill="rgb(247,229,156)" stroke="rgb(247,229,156)" stroke-width="1" opacity="1" d="M 44.5 116 L 45.5 118 L 44.5 116 Z " /><path fill="rgb(247,229,156)" stroke="rgb(247,229,156)" stroke-width="1" opacity="1" d="M 66.5 117 L 65.5 119 L 66.5 117 Z " /><path fill="rgb(247,229,156)" stroke="rgb(247,229,156)" stroke-width="1" opacity="1" d="M 88.5 123 L 93.5 129 L 88.5 123 Z " /><path fill="rgb(247,229,156)" stroke="rgb(247,229,156)" stroke-width="1" opacity="1" d="M 68.5 125 L 70.5 128 L 68.5 125 Z " /><path fill="rgb(247,229,156)" stroke="rgb(247,229,156)" stroke-width="1" opacity="1" d="M 99.5 128 L 100.5 130 L 99.5 128 Z " /><path fill="rgb(247,229,156)" stroke="rgb(247,229,156)" stroke-width="1" opacity="1" d="M 97.5 131 L 98.5 133 L 97.5 131 Z " /><path fill="rgb(247,229,156)" stroke="rgb(247,229,156)" stroke-width="1" opacity="1" d="M 77.5 134 L 78.5 136 L 77.5 134 Z " /><path fill="rgb(247,229,156)" stroke="rgb(247,229,156)" stroke-width="1" opacity="1" d="M 76.5 138 L 77.5 140 L 76.5 138 Z " /><path fill="rgb(247,229,156)" stroke="rgb(247,229,156)" stroke-width="1" opacity="1" d="M 201 141 L 203 141.5 L 201 142.5 L 201 141 Z " /><path fill="rgb(247,229,156)" stroke="rgb(247,229,156)" stroke-width="1" opacity="1" d="M 129 142 L 132 142.5 L 130 143 L 129.5 145 L 129 142 Z " /><path fill="rgb(247,229,156)" stroke="rgb(247,229,156)" stroke-width="1" opacity="1" d="M 140.5 144 L 143 144.5 L 140.5 145 L 140.5 144 Z " /><path fill="rgb(247,229,156)" stroke="rgb(247,229,156)" stroke-width="1" opacity="1" d="M 184.5 144 L 187 144.5 L 184.5 145 L 184.5 144 Z " /><path fill="rgb(247,229,156)" stroke="rgb(247,229,156)" stroke-width="1" opacity="1" d="M 149.5 145 L 154 145.5 L 149.5 146 L 149.5 145 Z " /><path fill="rgb(247,229,156)" stroke="rgb(247,229,156)" stroke-width="1" opacity="1" d="M 175.5 145 L 178 145.5 L 175.5 146 L 175.5 145 Z " /><path fill="rgb(247,229,156)" stroke="rgb(247,229,156)" stroke-width="1" opacity="1" d="M 140.5 148 L 143 148.5 L 140.5 149 L 140.5 148 Z " /><path fill="rgb(247,229,156)" stroke="rgb(247,229,156)" stroke-width="1" opacity="1" d="M 150.5 149 L 156 149.5 L 150.5 150 L 150.5 149 Z " /><path fill="rgb(247,229,156)" stroke="rgb(247,229,156)" stroke-width="1" opacity="1" d="M 166.5 149 L 175 149.5 L 166.5 150 L 166.5 149 Z " /><path fill="rgb(247,229,156)" stroke="rgb(247,229,156)" stroke-width="1" opacity="1" d="M 128.5 155 L 131 155.5 L 128.5 156 L 128.5 155 Z " /><path fill="rgb(247,229,156)" stroke="rgb(247,229,156)" stroke-width="1" opacity="1" d="M 153.5 155 L 156 155.5 L 153.5 156 L 153.5 155 Z " /><path fill="rgb(247,229,156)" stroke="rgb(247,229,156)" stroke-width="1" opacity="1" d="M 131.5 159 L 136 159.5 L 131.5 160 L 131.5 159 Z " /><path fill="rgb(247,229,156)" stroke="rgb(247,229,156)" stroke-width="1" opacity="1" d="M 151.5 159 L 155 159.5 L 151.5 160 L 151.5 159 Z " /><path fill="rgb(255,254,254)" stroke="rgb(255,254,254)" stroke-width="1" opacity="1" d="M 137.5 37 L 140 37.5 L 137.5 38 L 137.5 37 Z " /><path fill="rgb(255,254,254)" stroke="rgb(255,254,254)" stroke-width="1" opacity="1" d="M 127 41 L 130 41.5 L 127.5 43 L 127 41 Z " /><path fill="rgb(255,254,254)" stroke="rgb(255,254,254)" stroke-width="1" opacity="1" d="M 140.5 42 L 143 42.5 L 140.5 43 L 140.5 42 Z " /><path fill="rgb(255,254,254)" stroke="rgb(255,254,254)" stroke-width="1" opacity="1" d="M 152.5 51 L 155 51.5 L 152.5 52 L 152.5 51 Z " /><path fill="rgb(255,254,254)" stroke="rgb(255,254,254)" stroke-width="1" opacity="1" d="M 75.5 52 L 74.5 54 L 75.5 52 Z " /><path fill="rgb(255,254,254)" stroke="rgb(255,254,254)" stroke-width="1" opacity="1" d="M 79.5 55 L 78.5 57 L 79.5 55 Z " /><path fill="rgb(255,254,254)" stroke="rgb(255,254,254)" stroke-width="1" opacity="1" d="M 133.5 55 L 139 55.5 L 133.5 56 L 133.5 55 Z " /><path fill="rgb(255,254,254)" stroke="rgb(255,254,254)" stroke-width="1" opacity="1" d="M 141.5 55 L 147 55.5 L 141.5 56 L 141.5 55 Z " /><path fill="rgb(255,254,254)" stroke="rgb(255,254,254)" stroke-width="1" opacity="1" d="M 70.5 56 L 66.5 61 L 70.5 56 Z " /><path fill="rgb(255,254,254)" stroke="rgb(255,254,254)" stroke-width="1" opacity="1" d="M 193.5 56 L 194.5 58 L 193.5 56 Z " /><path fill="rgb(255,254,254)" stroke="rgb(255,254,254)" stroke-width="1" opacity="1" d="M 186.5 57 L 185.5 59 L 186.5 57 Z " /><path fill="rgb(255,254,254)" stroke="rgb(255,254,254)" stroke-width="1" opacity="1" d="M 75.5 58 L 68.5 66 L 75.5 58 Z " /><path fill="rgb(255,254,254)" stroke="rgb(255,254,254)" stroke-width="1" opacity="1" d="M 198.5 60 L 199.5 62 L 198.5 60 Z " /><path fill="rgb(255,254,254)" stroke="rgb(255,254,254)" stroke-width="1" opacity="1" d="M 63.5 64 L 62.5 66 L 63.5 64 Z " /><path fill="rgb(255,254,254)" stroke="rgb(255,254,254)" stroke-width="1" opacity="1" d="M 203.5 64 L 212.5 74 L 210 73.5 L 211 72.5 L 203.5 64 Z " /><path fill="rgb(255,254,254)" stroke="rgb(255,254,254)" stroke-width="1" opacity="1" d="M 61.5 67 L 60.5 69 L 61.5 67 Z " /><path fill="rgb(255,254,254)" stroke="rgb(255,254,254)" stroke-width="1" opacity="1" d="M 103.5 76 L 102.5 78 L 103.5 76 Z " /><path fill="rgb(255,254,254)" stroke="rgb(255,254,254)" stroke-width="1" opacity="1" d="M 108.5 81 L 107.5 83 L 108.5 81 Z " /><path fill="rgb(255,254,254)" stroke="rgb(255,254,254)" stroke-width="1" opacity="1" d="M 172.5 87 L 171.5 89 L 172.5 87 Z " /><path fill="rgb(255,254,254)" stroke="rgb(255,254,254)" stroke-width="1" opacity="1" d="M 186.5 90 L 187.5 92 L 186.5 90 Z " /><path fill="rgb(255,254,254)" stroke="rgb(255,254,254)" stroke-width="1" opacity="1" d="M 43.5 95 L 46 95.5 Q 43.9 98.8 43.5 95 Z " /><path fill="rgb(255,254,254)" stroke="rgb(255,254,254)" stroke-width="1" opacity="1" d="M 118.5 110 L 117.5 112 L 118.5 110 Z " /><path fill="rgb(255,254,254)" stroke="rgb(255,254,254)" stroke-width="1" opacity="1" d="M 186.5 111 L 183.5 115 L 186.5 111 Z " /><path fill="rgb(255,254,254)" stroke="rgb(255,254,254)" stroke-width="1" opacity="1" d="M 115.5 113 L 114.5 115 L 115.5 113 Z " /><path fill="rgb(255,254,254)" stroke="rgb(255,254,254)" stroke-width="1" opacity="1" d="M 90.5 119 L 96.5 126 L 90.5 119 Z " /><path fill="rgb(255,254,254)" stroke="rgb(255,254,254)" stroke-width="1" opacity="1" d="M 67.5 120 L 66.5 122 L 67.5 120 Z " /><path fill="rgb(255,254,254)" stroke="rgb(255,254,254)" stroke-width="1" opacity="1" d="M 85.5 120 L 86.5 122 L 85.5 120 Z " /><path fill="rgb(255,254,254)" stroke="rgb(255,254,254)" stroke-width="1" opacity="1" d="M 102.5 120 L 103.5 122 L 102.5 120 Z " /><path fill="rgb(255,254,254)" stroke="rgb(255,254,254)" stroke-width="1" opacity="1" d="M 62.5 124 L 63.5 126 L 62.5 124 Z " /><path fill="rgb(255,254,254)" stroke="rgb(255,254,254)" stroke-width="1" opacity="1" d="M 65.5 128 L 67.5 131 L 65.5 128 Z " /><path fill="rgb(255,254,254)" stroke="rgb(255,254,254)" stroke-width="1" opacity="1" d="M 72.5 129 L 73.5 131 L 72.5 129 Z " /><path fill="rgb(255,254,254)" stroke="rgb(255,254,254)" stroke-width="1" opacity="1" d="M 95.5 130 L 96.5 132 L 95.5 130 Z " /><path fill="rgb(255,254,254)" stroke="rgb(255,254,254)" stroke-width="1" opacity="1" d="M 99.5 133 L 100.5 135 L 99.5 133 Z " /><path fill="rgb(255,254,254)" stroke="rgb(255,254,254)" stroke-width="1" opacity="1" d="M 78.5 134 L 80.5 137 L 78.5 134 Z " /><path fill="rgb(255,254,254)" stroke="rgb(255,254,254)" stroke-width="1" opacity="1" d="M 73.5 136 L 76.5 140 L 73.5 136 Z " /><path fill="rgb(255,254,254)" stroke="rgb(255,254,254)" stroke-width="1" opacity="1" d="M 83.5 138 L 84.5 140 L 83.5 138 Z " /><path fill="rgb(255,254,254)" stroke="rgb(255,254,254)" stroke-width="1" opacity="1" d="M 157.5 145 L 172 145.5 L 157.5 146 L 157.5 145 Z " /><path fill="rgb(255,254,254)" stroke="rgb(255,254,254)" stroke-width="1" opacity="1" d="M 145.5 149 L 148 149.5 L 145.5 150 L 145.5 149 Z " /><path fill="rgb(255,254,254)" stroke="rgb(255,254,254)" stroke-width="1" opacity="1" d="M 148.5 155 L 151 155.5 L 148.5 156 L 148.5 155 Z " /><path fill="rgb(255,254,254)" stroke="rgb(255,254,254)" stroke-width="1" opacity="1" d="M 119.5 167 L 120.5 169 L 119.5 167 Z " /><path fill="rgb(255,255,255)" stroke="rgb(255,255,255)" stroke-width="1" opacity="1" d="M 0 0 L 230 0 L 230 225 L 0 225 L 0 0 Z M 122 4 L 120 8 L 116 37 L 115 38 L 105 39 L 90 44 L 71 56 Q 56 68 53 90 L 13 96 L 16 97 L 42 101 L 40 106 Q 39 113 41 117 Q 44 122 52 124 Q 59 125 62 123 L 65 129 Q 82 150 113 157 L 115 178 L 116 179 L 116 186 L 120 204 L 122 194 L 126 162 L 128 160 L 158 160 Q 159 158 165 159 Q 187 154 203 143 L 205 140 L 180 145 L 148 145 L 130 142 Q 132 129 140 120 L 147 115 Q 149 116 148 113 L 155 117 Q 163 118 166 114 L 172 117 Q 180 118 184 115 L 188 109 L 186 105 L 182 106 L 181 105 L 183 103 L 207 98 L 208 97 L 192 93 Q 187 95 188 92 L 185 90 L 185 89 Q 186 84 183 83 L 177 84 L 170 90 L 159 88 L 145 82 Q 132 73 130 56 L 139 56 L 140 55 L 142 56 L 156 56 L 179 61 Q 196 66 211 74 L 213 74 Q 199 57 178 47 L 153 39 L 141 38 L 140 37 L 128 37 L 126 36 L 122 4 Z M 201 18 L 199 20 L 199 28 L 192 28 L 191 27 L 189 27 L 189 31 L 198 32 L 198 39 L 197 40 Q 195 47 201 45 Q 200 37 202 32 L 211 33 L 212 31 L 211 29 L 202 29 L 203 20 L 201 18 Z M 59 143 L 56 144 L 59 155 Q 57 161 63 159 L 61 149 L 61 143 L 59 143 Z M 75 156 L 65 159 Q 62 158 63 162 L 60 163 L 61 166 L 63 183 Q 64 185 68 184 L 64 162 L 78 160 Q 80 154 75 156 Z M 55 160 L 47 162 L 45 162 L 45 166 L 60 163 Q 62 158 55 160 Z " /><path fill="rgb(255,255,255)" stroke="rgb(255,255,255)" stroke-width="1" opacity="1" d="M 199 29 Q 202 28 201 31 Q 198 32 199 29 Z " /><path fill="rgb(255,255,255)" stroke="rgb(255,255,255)" stroke-width="1" opacity="1" d="M 121.5 41 L 125 65.5 L 131 77.5 Q 125.4 78.4 123 82.5 L 122 87.5 L 124 90.5 L 119.5 94 Q 116 88.5 106.5 89 L 100.5 92 L 100 89.5 L 109 81.5 L 117 65.5 L 120 49.5 L 120 43.5 L 121.5 41 Z " /><path fill="rgb(255,255,255)" stroke="rgb(255,255,255)" stroke-width="1" opacity="1" d="M 128 42 L 147.5 43 L 160.5 46 L 174.5 51 L 188 58.5 L 186.5 59 L 179.5 56 L 154.5 51 L 129 51 L 128 42 Z " /><path fill="rgb(255,255,255)" stroke="rgb(255,255,255)" stroke-width="1" opacity="1" d="M 110.5 43 Q 116.2 41.2 114 47.5 L 112 55 L 96.5 61 L 90.5 66 L 85.5 67 L 79 72.5 L 78.5 74 L 71.5 74 L 61.5 78 L 62 76.5 Q 66.8 63.8 77.5 57 Q 90.9 46.9 110.5 43 Z " /><path fill="rgb(255,255,255)" stroke="rgb(255,255,255)" stroke-width="1" opacity="1" d="M 108.5 61 Q 111.5 60.1 110 64.5 Q 106.4 74.4 99.5 81 Q 95.5 81.5 95 78.5 L 99 75.5 L 100 69.5 L 98 66 L 108.5 61 Z " /><path fill="rgb(255,255,255)" stroke="rgb(255,255,255)" stroke-width="1" opacity="1" d="M 138.5 86 L 144 89.5 L 136.5 94 L 135 90.5 L 138.5 86 Z " /><path fill="rgb(255,255,255)" stroke="rgb(255,255,255)" stroke-width="1" opacity="1" d="M 46.5 95 L 50 95.5 L 45.5 97 L 46.5 95 Z " /><path fill="rgb(255,255,255)" stroke="rgb(255,255,255)" stroke-width="1" opacity="1" d="M 136.5 96 L 138 98.5 L 135.5 105 Q 132.9 105.8 134 102.5 L 136.5 96 Z " /><path fill="rgb(255,255,255)" stroke="rgb(255,255,255)" stroke-width="1" opacity="1" d="M 166.5 98 L 167 101 L 165 100.5 L 166.5 98 Z " /><path fill="rgb(255,255,255)" stroke="rgb(255,255,255)" stroke-width="1" opacity="1" d="M 77.5 107 L 81 114.5 L 91 128 L 110 140.5 L 112 151 Q 84.6 144.7 69 125.5 L 67 121.5 Q 74.5 116.5 77.5 107 Z " /><path fill="rgb(255,255,255)" stroke="rgb(255,255,255)" stroke-width="1" opacity="1" d="M 84.5 109 Q 95.6 111.9 102 119.5 Q 107.5 124.5 109 133.5 L 107.5 133 Q 95.9 127.6 89 117.5 L 84.5 109 Z " /><path fill="rgb(255,255,255)" stroke="rgb(255,255,255)" stroke-width="1" opacity="1" d="M 118.5 111 L 121.5 116 L 130.5 117 L 133.5 115 L 133 116.5 Q 126.7 125.2 124 137.5 L 120.5 168 L 119 166.5 L 119 152.5 L 118 151.5 L 116 129.5 L 110 116 Q 116 115.8 118.5 111 Z " /><path fill="rgb(255,255,255)" stroke="rgb(255,255,255)" stroke-width="1" opacity="1" d="M 129 147 L 145.5 150 L 175 150.5 L 157.5 155 L 135.5 156 L 134.5 155 L 128 155 L 129 147 Z " /><path fill="rgb(254,236,133)" stroke="rgb(254,236,133)" stroke-width="1" opacity="1" d="M 114.5 38 L 115 42 Q 85.2 45.4 69 63.5 L 62 73.5 L 61 77.5 L 55.5 83 L 56 81.5 L 58 73.5 L 69 58 L 81.5 49 L 91.5 44 L 99.5 41 L 114.5 38 Z " /><path fill="rgb(254,236,133)" stroke="rgb(254,236,133)" stroke-width="1" opacity="1" d="M 127 38 L 141.5 38 L 170.5 45 Q 192.3 53.3 207 68.5 L 209 71.5 L 207.5 71 L 196.5 66 L 165.5 57 L 160.5 57 L 153.5 55 L 130.5 55 L 129 53.5 Q 128.5 50.5 135.5 52 L 136.5 51 L 144.5 51 L 145.5 52 L 155.5 52 L 156.5 53 L 168.5 54 L 191.5 61 L 190.5 59 L 163.5 46 L 145.5 42 L 127 41 L 127 38 Z " /><path fill="rgb(254,236,133)" stroke="rgb(254,236,133)" stroke-width="1" opacity="1" d="M 109.5 56 L 112 56.5 L 111 60 L 108.5 60 L 97.5 66 L 92.5 66 L 93.5 64 L 109.5 56 Z " /><path fill="rgb(254,236,133)" stroke="rgb(254,236,133)" stroke-width="1" opacity="1" d="M 88.5 69 Q 95.3 67.3 97 70.5 Q 97.5 74.5 94.5 75 L 88.5 73 L 85.5 77 Q 92.1 77.9 95 82.5 Q 97.6 85.4 97 91.5 L 91.5 101 Q 89.2 103.7 83.5 103 L 80 100.5 L 79 95.5 L 81.5 92 L 85.5 94 Q 89 92 88 85.5 Q 86.6 81 81 82 L 75 105.5 L 67.5 117 Q 62.7 121.7 52.5 121 Q 46.8 119.8 44 115.5 Q 41.7 112.3 43 105.5 L 47.5 100 Q 51.7 95.8 60 97 L 59 102.5 Q 60 105 64.5 104 L 69 100.5 L 77 82.5 L 73.5 82 L 70 84.5 Q 69.3 88.8 72 89.5 L 68.5 94 L 62.5 96 L 57 92.5 Q 55.7 84.2 60.5 82 L 71.5 77 L 79.5 77 L 88.5 69 Z " /><path fill="rgb(254,236,133)" stroke="rgb(254,236,133)" stroke-width="1" opacity="1" d="M 129.5 81 L 135 83.5 L 134 88 L 126 89 L 125 85.5 L 127.5 82 L 129.5 81 Z " /><path fill="rgb(254,236,133)" stroke="rgb(254,236,133)" stroke-width="1" opacity="1" d="M 179.5 86 Q 182.8 84.9 182 87.5 L 181 93 Q 186.2 90.9 185 95.5 Q 183.6 98.3 179 97 L 177 106.5 Q 177.5 109.5 181.5 109 L 184 108 L 180.5 113 L 172.5 114 L 169 111.5 L 168 107.5 L 171 97 Q 168.3 98.1 169 95.5 L 171.5 92 L 179.5 86 Z " /><path fill="rgb(254,236,133)" stroke="rgb(254,236,133)" stroke-width="1" opacity="1" d="M 107.5 92 Q 114.8 91.2 117 95.5 Q 119.3 98.7 118 105.5 L 111.5 113 L 101.5 114 L 98 111.5 Q 95.2 108.8 96 102.5 Q 97.4 96.4 102.5 94 L 107.5 92 Z M 108 97 Q 104 98 105 103 L 109 104 Q 112 103 111 99 L 108 97 Z " /><path fill="rgb(254,236,133)" stroke="rgb(254,236,133)" stroke-width="1" opacity="1" d="M 128.5 92 L 133 93 L 131 101.5 L 131 107.5 L 133.5 109 L 135.5 108 L 135 109.5 L 133.5 112 Q 130.8 114.8 124.5 114 Q 120.5 112.5 122 105.5 L 124 96.5 Q 121.3 94.7 125.5 93 L 128.5 92 Z " /><path fill="rgb(254,236,133)" stroke="rgb(254,236,133)" stroke-width="1" opacity="1" d="M 144.5 92 Q 149 91 150 93.5 Q 149.3 95.8 151.5 95 Q 153.4 90.9 160.5 92 Q 164.3 93.3 163 99.5 L 161 107.5 L 163.5 109 L 166 108 L 162.5 113 L 154.5 114 Q 151 113 152 107.5 L 154 100.5 L 151.5 99 L 149 100 L 147 109.5 L 144.5 113 L 137.5 114 L 138 112.5 L 141 99.5 L 141 94.5 L 142.5 93 L 144.5 92 Z " /><path fill="rgb(254,236,133)" stroke="rgb(254,236,133)" stroke-width="1" opacity="1" d="M 79.5 107 L 84 109.5 Q 89.2 122.8 100.5 130 L 110 135 L 110 139 L 108.5 139 Q 95.2 131.8 86 120.5 L 80 110.5 L 79.5 107 Z " /><path fill="rgb(254,236,133)" stroke="rgb(254,236,133)" stroke-width="1" opacity="1" d="M 65.5 121 Q 70 130.5 78.5 136 L 98.5 148 L 112 152 L 113 156 Q 83.1 149.2 66 128.5 L 63 124.5 L 63 122 L 65.5 121 Z " /><path fill="rgb(254,236,133)" stroke="rgb(254,236,133)" stroke-width="1" opacity="1" d="M 198.5 142 L 201 142.5 Q 178.3 160.8 136.5 160 L 135.5 159 L 127 159 L 127.5 155 L 128.5 156 L 155.5 156 L 171.5 153 L 181 149.5 L 166.5 149 L 165.5 150 L 156.5 150 L 155.5 149 L 136.5 148 L 129 145.5 L 130 143 L 140.5 145 L 148.5 145 L 149.5 146 L 177.5 146 L 178.5 145 L 192.5 144 L 198.5 142 Z " /><path fill="rgb(212,127,212)" stroke="rgb(212,127,212)" stroke-width="1" opacity="1" d="M 121.5 6 L 125 33.5 L 131 63.5 Q 134.7 75.3 143.5 82 Q 153.7 89.3 170.5 90 Q 173.7 84.2 182.5 84 Q 185.3 85.4 184 90 L 187 91.5 L 188.5 94 L 205 96.5 L 203.5 98 L 183.5 102 L 180 104.5 Q 179.4 107.3 185.5 106 Q 187.8 106.8 187 110.5 Q 183.6 117.1 173.5 117 L 166.5 113 Q 163.5 117 156.5 117 L 151 115 L 149.5 112 L 140 118.5 Q 131.8 127.8 129 142.5 L 119.5 202 L 114 158.5 L 113 157.5 L 113 150.5 L 109 129.5 Q 105.1 119.4 96.5 114 Q 88.3 108 77 106 Q 75 115.2 67.5 120 L 64.5 122 L 55.5 124 Q 54.3 121.8 49.5 123 L 43 118.5 Q 39 115 40 106.5 L 43 101.5 L 41.5 100 L 24.5 98 L 17 95.5 L 54 91 Q 53.7 82 60.5 79 L 72.5 74 L 78.5 74 Q 82.4 68.4 89.5 66 L 95.5 66 L 98 67 L 100 72.5 L 96.5 77 Q 93.2 75.9 94 78.5 L 98.5 82 L 102 79.5 L 111 63.5 L 121.5 6 Z M 122 34 L 120 38 L 120 46 L 116 67 L 109 81 L 99 90 L 100 93 L 106 90 Q 117 88 120 95 L 124 92 Q 127 90 123 89 Q 122 83 124 81 L 128 79 L 132 79 Q 127 72 125 63 L 122 34 Z M 91 68 Q 83 70 80 76 Q 69 76 63 80 L 56 88 L 57 94 L 61 96 L 66 96 L 72 91 Q 73 87 70 88 L 70 86 L 76 82 L 70 99 Q 68 103 62 104 L 59 101 Q 63 98 59 96 L 50 98 Q 44 101 42 108 Q 41 114 44 117 L 51 121 Q 60 122 66 119 Q 72 115 75 107 L 79 90 L 82 82 L 86 83 L 88 88 Q 88 92 85 94 Q 83 91 80 92 L 79 95 Q 78 102 83 103 L 91 102 L 97 94 L 96 84 Q 94 78 88 77 Q 85 78 86 76 Q 87 73 92 74 L 93 76 L 96 75 Q 98 74 97 69 L 91 68 Z M 129 81 L 125 85 Q 124 89 128 90 L 133 89 Q 136 88 135 83 Q 134 80 129 81 Z M 83 85 L 82 88 L 85 88 Q 86 84 83 85 Z M 137 85 Q 138 89 134 91 L 136 95 L 145 90 L 137 85 Z M 179 86 L 169 95 L 170 98 Q 171 103 168 106 Q 167 113 172 114 Q 182 115 185 110 L 185 108 L 178 108 L 179 98 Q 184 99 185 97 Q 187 90 181 92 L 182 90 Q 184 84 179 86 Z M 106 92 L 102 94 L 96 101 Q 95 107 97 111 L 104 115 Q 110 115 114 112 Q 118 109 119 104 L 118 97 Q 116 90 106 92 Z M 128 92 L 123 94 L 124 97 L 121 112 L 127 115 Q 133 114 136 110 L 136 108 L 131 108 L 133 94 Q 132 91 128 92 Z M 144 92 L 140 95 L 141 97 L 137 113 L 138 115 Q 139 113 145 114 L 147 111 L 149 102 L 153 100 L 152 106 Q 150 112 154 114 Q 161 115 165 112 L 167 109 Q 162 109 161 107 L 164 97 L 162 92 Q 154 91 152 94 Q 150 91 144 92 Z M 25 95 L 25 96 L 34 96 L 35 97 L 49 97 L 51 96 L 25 95 Z M 135 96 L 133 105 L 136 106 L 138 101 Q 140 94 135 96 Z M 167 96 L 165 99 Q 164 103 168 101 L 167 96 Z M 188 97 L 188 98 L 195 98 L 188 97 Z M 65 98 L 65 99 L 67 99 L 65 98 Z M 92 103 L 92 105 L 94 104 L 92 103 Z M 119 110 Q 115 115 109 116 L 116 133 L 117 148 L 118 149 L 118 161 L 119 162 L 120 185 L 121 177 L 122 155 L 123 154 L 125 136 Q 127 124 134 118 L 134 115 L 128 117 L 123 116 L 119 110 Z " /><path fill="rgb(212,127,212)" stroke="rgb(212,127,212)" stroke-width="1" opacity="1" d="M 200 19 Q 204.1 17.3 203 21.5 Q 200.8 22.8 202 27.5 L 200.5 29 L 199 26.5 L 200 25.5 L 200 19 Z " /><path fill="rgb(212,127,212)" stroke="rgb(212,127,212)" stroke-width="1" opacity="1" d="M 189 28 L 199 29 L 198.5 31 L 189 31 L 189 28 Z " /><path fill="rgb(212,127,212)" stroke="rgb(212,127,212)" stroke-width="1" opacity="1" d="M 202 30 L 211 30 L 211 33 Q 208.2 31.1 202 32 L 202 30 Z " /><path fill="rgb(212,127,212)" stroke="rgb(212,127,212)" stroke-width="1" opacity="1" d="M 199 32 L 201 32.5 L 201 41.5 L 200 45 L 197 43.5 L 199 32 Z " /><path fill="rgb(212,127,212)" stroke="rgb(212,127,212)" stroke-width="1" opacity="1" d="M 107.5 98 Q 112.1 96.7 110 102.5 L 107.5 104 Q 105.3 103.3 106 99.5 L 107.5 98 Z " /><path fill="rgb(212,127,212)" stroke="rgb(212,127,212)" stroke-width="1" opacity="1" d="M 57 144 Q 60.7 142.5 60 145.5 L 62 152.5 L 62 159 Q 59 160.3 60 156.5 L 57 144 Z " /><path fill="rgb(212,127,212)" stroke="rgb(212,127,212)" stroke-width="1" opacity="1" d="M 76.5 156 L 78 160 L 65.5 161 L 64.5 162 L 64 159 L 76.5 156 Z " /><path fill="rgb(212,127,212)" stroke="rgb(212,127,212)" stroke-width="1" opacity="1" d="M 57.5 160 Q 60.5 159.2 59 163 L 46.5 166 L 45 162 L 57.5 160 Z " /><path fill="rgb(212,127,212)" stroke="rgb(212,127,212)" stroke-width="1" opacity="1" d="M 61 163 L 64 164.5 L 67 183 L 64.5 184 L 61 163 Z " /></svg>